# xmcd CD database file
#
# Track frame offsets:
#	150
#	38845
#	98794
#	134485
#	165257
#	206226
#
# Disc length: 4273 seconds
#
# Revision: 0
# Processed by: cddbd v1.5.1PL0 Copyright (c) Steve Scherf et al.
# Submitted via: CDex 1.51
#
DISCID=4c10af06
DTITLE=Arden Wilken - Corpo Radiante
DYEAR=1997
DGENRE=New Age
TTITLE0=Gentle Heart
TTITLE1=Radiant Body
TTITLE2=Gentler Heart
TTITLE3=Inner Road
TTITLE4=Inner Radiance
TTITLE5=Colors: Orange, Blue And Green
EXTD=YEAR: 1997
EXTT0=
EXTT1=
EXTT2=
EXTT3=
EXTT4=
EXTT5=
PLAYORDER=
